<svg width="36" height="34" viewBox="0 0 36 34" fill="none" xmlns="http://www.w3.org/2000/svg">
<path d="M28.1906 22.3763C27.3198 21.3161 26.8652 19.9908 26.8652 18.6276V15.5226C26.8652 11.0166 23.4952 7.30586 19.1407 6.73788V5.18535C19.1407 4.57945 18.6484 4.0874 18.0428 4.0874C17.4369 4.0874 16.9448 4.57973 16.9448 5.18535L16.9446 6.77615C12.5902 7.30625 9.22012 11.055 9.22012 15.5608V18.6659C9.22012 20.029 8.76582 21.3544 7.89471 22.4146L6.53157 24.0807C5.81207 24.9515 5.66075 26.1253 6.15282 27.1477C6.64514 28.1701 7.62955 28.8138 8.76557 28.8138H13.0064C13.1958 31.3502 15.3542 33.3951 18.0047 33.3951C20.6552 33.3951 22.8136 31.3505 23.0407 28.7756H27.2815C28.4175 28.7756 29.4019 28.1319 29.8943 27.1094C30.3866 26.087 30.235 24.9133 29.5155 24.0424L28.1906 22.3763ZM18.0049 31.161C16.604 31.161 15.4302 30.1386 15.2028 28.7754H20.8068C20.5796 30.1386 19.4059 31.161 18.0049 31.161ZM27.9255 26.2005C27.8878 26.314 27.6984 26.5792 27.3196 26.5792H8.72794C8.34919 26.5792 8.16008 26.314 8.12204 26.2005C8.08427 26.0869 7.9707 25.7839 8.19785 25.481L9.56099 23.8148C10.7347 22.3759 11.3784 20.5585 11.3784 18.7029V15.5979C11.3784 11.925 14.3696 8.97151 18.0048 8.97151C21.64 8.97151 24.6312 11.9627 24.6312 15.5979V18.7029C24.6312 20.5584 25.2748 22.3758 26.4486 23.8148L27.8118 25.481C28.0769 25.7462 27.9634 26.0491 27.9253 26.2005H27.9255Z" fill="black"/>
<path d="M26.221 4.80663C25.7287 4.42788 25.0472 4.54145 24.6684 4.99601C24.2897 5.48834 24.4033 6.16976 24.8578 6.54854C26.7889 8.06301 28.2278 10.1837 28.9095 12.5312C29.0609 13.0235 29.4774 13.3265 29.9697 13.3265C30.0833 13.3265 30.1591 13.3265 30.2727 13.2887C30.8786 13.1374 31.2193 12.5315 31.0299 11.9256C30.2727 9.12325 28.5686 6.5863 26.221 4.80631L26.221 4.80663Z" fill="black"/>
<path d="M7.09988 12.5314C7.74355 10.1838 9.18252 8.06343 11.1516 6.5487C11.6439 6.16994 11.7194 5.48848 11.3409 4.99617C10.9622 4.50384 10.2807 4.4283 9.78842 4.80679C7.44086 6.58644 5.73673 9.12339 4.9417 11.9254C4.79036 12.5313 5.13108 13.1372 5.69893 13.2885C5.81251 13.3263 5.88831 13.3263 6.00189 13.3263C6.49421 13.3263 6.94851 13.0234 7.09984 12.5313L7.09988 12.5314Z" fill="black"/>
<path d="M35.9904 12.3419C35.1574 7.72237 32.6204 3.63295 28.7961 0.830943C28.3038 0.452185 27.6223 0.56576 27.2436 1.05809C26.8648 1.55042 26.9784 2.23184 27.4707 2.61062C30.8407 5.07171 33.0746 8.66915 33.7941 12.7206C33.9077 13.2507 34.362 13.6294 34.8921 13.6294H35.0815C35.6874 13.5156 36.0661 12.9474 35.9903 12.3418L35.9904 12.3419Z" fill="black"/>
<path d="M8.53842 2.61061C9.03074 2.23186 9.14432 1.5504 8.76556 1.05808C8.38681 0.565771 7.70535 0.452183 7.21303 0.830934C3.38874 3.63301 0.851856 7.72236 0.0186922 12.3419C-0.0948824 12.9478 0.321646 13.5156 0.927519 13.6292H1.1169C1.64699 13.6292 2.10132 13.2505 2.21485 12.7204C2.93435 8.66925 5.20604 5.07235 8.53829 2.61045L8.53842 2.61061Z" fill="black"/>
</svg>
