<svg width="28" height="20" viewBox="0 0 28 20" fill="none" xmlns="http://www.w3.org/2000/svg">
<path d="M21 16H25V17C25 18.654 23.654 20 22 20H3C1.346 20 0 18.654 0 17V3C0 1.346 1.346 0 3 0H22C23.654 0 25 1.346 25 3V4H21C18.2431 4 16 6.24309 16 9V11C16 13.7569 18.2431 16 21 16ZM28 9V11C28 12.654 26.654 14 25 14H21C19.346 14 18 12.654 18 11V9C18 7.346 19.346 6 21 6H25C26.654 6 28 7.346 28 9ZM22 10C22 9.44799 21.552 9 21 9C20.448 9 20 9.44799 20 10C20 10.552 20.448 11 21 11C21.552 11 22 10.552 22 10Z" fill="#E1D3C9"/>
</svg>
